<svg xmlns="http://www.w3.org/2000/svg" id="Group_334" data-name="Group 334" width="156.908" height="63.072" viewBox="0 0 156.908 63.072"><g id="Group_68" data-name="Group 68"><path id="Path_239" data-name="Path 239" d="M1620.49,4402.654v-26.267h-26.267Z" transform="translate(-1463.582 -4376.388)" fill="#00ac8d"></path><path id="Path_240" data-name="Path 240" d="M1519.247,4408.869a23.431,23.431,0,0,1,7.085-17.383,24.252,24.252,0,0,1,17.749-6.985,27.992,27.992,0,0,1,6.323.695,22.689,22.689,0,0,1,5,1.688q1.987.995,3.511,1.954a13.634,13.634,0,0,1,2.252,1.688l.662.662-5.365,8.742q-.6-.529-1.655-1.324a23.71,23.71,0,0,0-4.172-2.153,15.045,15.045,0,0,0-6.027-1.356q-6.425,0-9.9,3.972a13.991,13.991,0,0,0-3.477,9.535,15.056,15.056,0,0,0,3.576,9.967,12.1,12.1,0,0,0,9.8,4.271,14.9,14.9,0,0,0,6.325-1.457,17.462,17.462,0,0,0,4.669-2.913l1.589-1.457,5.961,8.475a11.376,11.376,0,0,1-.795.863,26.01,26.01,0,0,1-2.35,1.888,28.133,28.133,0,0,1-3.875,2.416,28.531,28.531,0,0,1-12.053,2.781q-10.993,0-17.914-6.952T1519.247,4408.869Z" transform="translate(-1519.247 -4370.365)" fill="#7f3f97"></path><path id="Path_241" data-name="Path 241" d="M1576.918,4426.632l6.085-8.8q.6.529,1.654,1.357a22.472,22.472,0,0,0,4.035,2.18,13.585,13.585,0,0,0,5.623,1.358,6.566,6.566,0,0,0,3.5-.894,3.05,3.05,0,0,0-.133-5.292,16.157,16.157,0,0,0-3.934-2.017,54.42,54.42,0,0,1-5.126-2.215,45.429,45.429,0,0,1-5.126-2.911,12.709,12.709,0,0,1-3.936-4.266,11.947,11.947,0,0,1-1.588-6.151,13.013,13.013,0,0,1,4.8-10.45,17.9,17.9,0,0,1,11.938-4.034,24.5,24.5,0,0,1,8.3,1.355,17.4,17.4,0,0,1,5.325,2.679l1.588,1.323-4.895,9.458q-.531-.463-1.488-1.159a21.26,21.26,0,0,0-3.7-1.852,13.517,13.517,0,0,0-5.259-1.158,6.547,6.547,0,0,0-3.539.927,3.056,3.056,0,0,0-1.488,2.776q0,1.588,2.183,2.845a37.214,37.214,0,0,0,5.325,2.447,65.287,65.287,0,0,1,6.283,2.778,14.725,14.725,0,0,1,5.325,4.6,11.9,11.9,0,0,1,2.182,7.177,13.81,13.81,0,0,1-4.5,10.418q-4.5,4.264-12.171,4.265a25.8,25.8,0,0,1-6.018-.7A21.992,21.992,0,0,1,1583.3,4431a37.323,37.323,0,0,1-3.473-1.983,11.7,11.7,0,0,1-2.182-1.719Z" transform="translate(-1476.43 -4370.365)" fill="#7f3f97"></path><path id="Path_265" data-name="Path 265" d="M1597.785,4379.951v13.514H1611.3Z" transform="translate(-1460.938 -4373.744)" fill="#7f3f97"></path><path id="Path_266" data-name="Path 266" d="M1560.86,4420.341l12.869-15.577v26.616h13.025v-45.941h-13.062l-12.856,16.542Z" transform="translate(-1488.369 -4369.665)" fill="#00ac8d"></path><path id="Path_267" data-name="Path 267" d="M1571.876,4420.341l-13.251-15.577v26.616H1546v-45.941h12.562l13.289,16.542v18.38" transform="translate(-1499.385 -4369.665)" fill="#7f3f97"></path></g></svg>