<svg xmlns="http://www.w3.org/2000/svg" xmlns:xlink="http://www.w3.org/1999/xlink" width="120" height="120" viewBox="0 0 120 120"><defs><clipPath id="clip-path"><rect id="Rectangle_7288" data-name="Rectangle 7288" width="69.84" height="71.842" fill="#fff"></rect></clipPath></defs><g id="Group_38133" data-name="Group 38133" transform="translate(-1454 -4194)"><g id="Ellipse_996" data-name="Ellipse 996" transform="translate(1454 4194)" fill="none" stroke="#fff" stroke-width="2" opacity="0.86"><circle cx="60" cy="60" r="60" stroke="none"></circle><circle cx="60" cy="60" r="59" fill="none"></circle></g><g id="Group_38134" data-name="Group 38134" transform="translate(1479.079 4218.08)"><g id="Group_38131" data-name="Group 38131" clip-path="url(#clip-path)"><path id="Path_130335" data-name="Path 130335" d="M133.229,167.385c-1.222-1.377-1.227-3.061-1.619-4.612-.218-.86-.371-1.737-.54-2.609a4.7,4.7,0,0,0-1.434-2.528c-4.379-4.329-5.907-9.56-4.137-15.459,1.728-5.759,5.794-9.239,11.692-10.369a14.862,14.862,0,0,1,17.384,13.514,14.587,14.587,0,0,1-5.045,12.4,6.328,6.328,0,0,0-1.6,3.461c-.272,1.1-.461,2.214-.644,3.329a5.593,5.593,0,0,1-.959,2.54c-.123.164-.331.321.05.468.46.178.493.57.441,1.01q-.54,4.574-1.055,9.15c-.081.733-.436,1.085-1.171.972-.654-.1-.912.165-1.109.8a3.687,3.687,0,0,1-3.8,2.667,3.648,3.648,0,0,1-3.828-2.728c-.179-.662-.486-.812-1.066-.732-.786.109-1.118-.27-1.209-1.027-.364-3.049-.751-6.094-1.142-9.139-.076-.587.186-.913.793-1.1m19.9-19.8c0-9.237-7.266-15.6-15.3-14.345a12.731,12.731,0,0,0-10.859,9.3c-1.656,5.385-.254,10.17,3.815,14.091a5.252,5.252,0,0,1,1.648,2.786c.358,1.74.744,3.474,1.105,5.214a3.229,3.229,0,0,0,2.165,2.6c.232.082.507.213.692.065.206-.166.032-.445-.025-.667q-1.639-6.415-3.283-12.83a7.421,7.421,0,0,0-1.006-2.6,8.118,8.118,0,0,1-.612-9,9.091,9.091,0,0,1,16.015-.205,8.41,8.41,0,0,1-.331,9.112,4.262,4.262,0,0,0-.653,1.2q-1.835,7.239-3.694,14.471c-.164.632.126.656.561.528a3.066,3.066,0,0,0,2.314-2.444c.282-1.371.492-2.758.813-4.119a8.821,8.821,0,0,1,2.594-4.712,12.064,12.064,0,0,0,4.041-8.436m-13.517-8.8a7.446,7.446,0,0,0-6.689,3.9,6.528,6.528,0,0,0,.154,7.262c.868,1.312,2.249,2.147,3.378,3.219.292.277.408-.116.532-.279.666-.881,1.307-1.781,1.973-2.663.554-.733,1.087-.684,1.542.127.184.329.345.67.525,1,.346.635.587,1.661,1.076,1.8.628.178,1.212-.723,1.787-1.184a7.8,7.8,0,0,0,2.1-1.858,6.882,6.882,0,0,0,.187-7.364,7.428,7.428,0,0,0-6.566-3.956m-4.813,14.966-.126.092q1.46,5.737,2.922,11.474c.526,2.053.534,2.026,2.688,2.059.62.01.885-.157,1.037-.78.705-2.9,1.468-5.781,2.2-8.671.375-1.471.738-2.945,1.159-4.629-.835.649-1.482,1.162-2.141,1.661-.732.555-1.1.475-1.527-.331-.463-.872-.912-1.752-1.409-2.709-.747,1.007-1.438,1.931-2.12,2.861a.821.821,0,0,1-1.368.143c-.445-.383-.88-.779-1.319-1.17m4.874,18.162q-2.1,0-4.195,0c-1.1,0-1.067,0-.958,1.13.068.705.282.983,1.069.964,2.607-.062,5.216-.023,7.825-.023,1.314,0,1.294,0,1.439-1.332.06-.549-.064-.766-.663-.751-1.5.037-3.011.012-4.517.012m.013-2.965c-1.667,0-3.335-.006-5,.006-.251,0-.725-.135-.581.368.108.378-.275,1.081.575,1.081,3.308,0,6.616-.008,9.923.006.788,0,.514-.59.6-.977.107-.507-.252-.486-.59-.485q-2.461,0-4.921,0m.024,6.581c-1.343,0-2.687-.019-4.03.017-.259.007-.843-.293-.745.341.076.493-.305,1.332.795,1.307,1.96-.045,3.923-.013,5.884-.013.726,0,1.452.017,2.176-.006.976-.031.5-.84.622-1.29.136-.5-.352-.341-.591-.345-1.37-.017-2.741-.008-4.111-.009m-.008,5.075a2.274,2.274,0,0,0,2.292-1.444c.117-.311.16-.51-.281-.507q-2.017.014-4.034,0c-.378,0-.457.111-.329.48a2.273,2.273,0,0,0,2.352,1.472" transform="translate(-104.592 -110.274)" fill="#fff"></path><path id="Path_130336" data-name="Path 130336" d="M85.935,99.161c-.242.853-.457,1.714-.737,2.554-.112.335-.486.381-.813.441-1.032.189-2.059.413-3.1.579-.428.068-.615.229-.573.672.031.321.006.647.006.97,0,1.892,0,1.892,1.88,2.315,2.669.6,2.66.6,3.247,3.25a.964.964,0,0,1-.437,1.034c-.8.676-1.586,1.381-2.4,2.04-.353.285-.467.507-.183.926a14.758,14.758,0,0,1,1.092,1.886c.231.484.528.5.965.363.921-.3,1.852-.568,2.777-.854.489-.151.956-.146,1.135.415.189.594-.177.88-.718,1.037-1.24.36-2.479.728-3.708,1.125a.943.943,0,0,1-1.277-.487q-1.006-1.8-2.059-3.569a.915.915,0,0,1,.233-1.339c.871-.723,1.7-1.494,2.584-2.2a.779.779,0,0,0,.242-.991c-.129-.391-.108-.814-.713-.918-1.085-.186-2.143-.531-3.226-.736a1.039,1.039,0,0,1-.963-1.229c.031-1.239,0-2.48.009-3.72,0-1.04.121-1.164,1.179-1.352.98-.175,1.956-.38,2.941-.525.521-.077.7-.379.809-.833.106-.428.209-.769-.223-1.133-.845-.71-1.613-1.51-2.434-2.25a1,1,0,0,1-.2-1.43c.675-1.134,1.343-2.273,1.976-3.431a.994.994,0,0,1,1.4-.527c1.034.383,2.1.687,3.114,1.113.583.245.766-.18,1.077-.432s.523-.468.356-.944c-.373-1.066-.648-2.165-1-3.237a.94.94,0,0,1,.48-1.278q1.794-1.01,3.566-2.06a.923.923,0,0,1,1.345.225c.687.831,1.4,1.64,2.1,2.458.242.282.431.586.926.381s1.026-.193,1.143-.912c.165-1.007.459-1.993.661-2.995.137-.679.445-1.022,1.2-.993,1.319.051,2.642.039,3.962,0,.714-.019,1.017.3,1.122.97.157,1.01.386,2.009.554,3.018.072.435.188.747.7.82.484.069.912.363,1.363-.2.674-.837,1.47-1.576,2.192-2.376a.937.937,0,0,1,1.35-.2c1.176.708,2.371,1.386,3.567,2.061a.91.91,0,0,1,.463,1.276c-.383,1.005-.686,2.043-1.1,3.035-.3.727.358.919.613,1.338.214.352.5.3.84.186,1.024-.331,2.066-.606,3.089-.939a.983.983,0,0,1,1.339.517q.956,1.733,1.98,3.428a1.027,1.027,0,0,1-.287,1.534c-.778.623-1.51,1.3-2.277,1.94-.307.255-.564.479-.345.934.211.439.024,1.066.821,1.187,1.06.161,2.092.5,3.146.721a.9.9,0,0,1,.818,1.008q-.01,2.1,0,4.206a.879.879,0,0,1-.835.988c-1.062.178-2.112.425-3.176.58a.769.769,0,0,0-.719.723c-.08.44-.44.861.1,1.313.845.709,1.613,1.51,2.429,2.254a.921.921,0,0,1,.18,1.294c-.708,1.208-1.415,2.417-2.1,3.639a.857.857,0,0,1-1.151.442c-1.322-.46-2.643-.92-3.955-1.406-.5-.184-.878-.524-.608-1.11.238-.515.662-.509,1.163-.308.973.39,1.974.711,2.954,1.084a.529.529,0,0,0,.771-.3q.548-1.034,1.168-2.031a.545.545,0,0,0-.127-.822c-.744-.664-1.45-1.37-2.188-2.04a1.217,1.217,0,0,1-.384-1.513,1.96,1.96,0,0,0,.2-.611c.1-1.534,1.03-2.094,2.437-2.186.587-.039,1.161-.25,1.748-.3.508-.046.61-.288.593-.738-.029-.727-.032-1.457,0-2.183.023-.479-.171-.654-.624-.741-.95-.184-1.887-.438-2.833-.647a1.217,1.217,0,0,1-1.079-1.13,2.47,2.47,0,0,0-.192-.863c-.643-1.221-.117-2,.885-2.7.573-.4,1.055-.922,1.606-1.354a.511.511,0,0,0,.134-.808c-.417-.66-.8-1.34-1.17-2.029a.53.53,0,0,0-.764-.308c-.89.306-1.816.511-2.7.84a1.342,1.342,0,0,1-1.819-.494,4.069,4.069,0,0,0-.887-.936,1.279,1.279,0,0,1-.389-1.71c.33-.824.568-1.685.91-2.5.215-.515.08-.769-.392-1a20.046,20.046,0,0,1-1.891-1.086.524.524,0,0,0-.809.129c-.662.745-1.369,1.451-2.042,2.186a1.3,1.3,0,0,1-1.581.418,12.555,12.555,0,0,0-1.793-.474.837.837,0,0,1-.692-.779c-.17-1.035-.364-2.067-.529-3.1-.074-.462-.242-.708-.779-.67-.884.063-1.949-.242-2.609.154-.645.387-.6,1.555-.7,2.389a2.48,2.48,0,0,1-2.227,2.363,1.951,1.951,0,0,1-2.466-.775c-.457-.661-1.064-1.217-1.562-1.854-.277-.354-.529-.4-.866-.134a.649.649,0,0,1-.067.045c-.758.459-1.837.75-2.185,1.421-.359.693.281,1.695.605,2.5a2.357,2.357,0,0,1-.756,3.062,2.093,2.093,0,0,1-2.62.528c-.677-.322-1.426-.488-2.12-.778-.475-.2-.717-.074-.939.367-.4.79-1.215,1.575-1.173,2.324.043.769,1.148,1.25,1.762,1.883.3.309.626.593.926.9a.849.849,0,0,1,.33.715" transform="translate(-66.378 -69.209)" fill="#fff"></path><path id="Path_130337" data-name="Path 130337" d="M361.731,176.441a.673.673,0,0,1-.807-.6c-.066-.519.23-.767.723-.887,2.583-.628,5.162-1.276,7.742-1.915.678-.168,1.354-.345,2.037-.486a.7.7,0,0,1,.922.551.71.71,0,0,1-.6.9q-4.887,1.216-9.776,2.419a1.621,1.621,0,0,1-.241.027" transform="translate(-302.53 -144.615)" fill="#fff"></path><path id="Path_130338" data-name="Path 130338" d="M1.012,172.628c.922.231,2.015.507,3.11.778,2.164.535,4.326,1.076,6.494,1.6.535.129.948.353.814.968-.142.646-.672.621-1.165.5-3.182-.782-6.359-1.581-9.541-2.365-.488-.12-.79-.376-.71-.9.067-.438.381-.624,1-.581" transform="translate(0 -144.697)" fill="#fff"></path><path id="Path_130339" data-name="Path 130339" d="M355.242,82.528a.721.721,0,0,1,.539,1.209,2.177,2.177,0,0,1-.525.367q-4.086,2.282-8.176,4.556-.106.059-.213.114c-.436.224-.876.238-1.123-.226-.255-.48-.051-.859.432-1.126q4.236-2.344,8.46-4.71a1.136,1.136,0,0,1,.607-.184" transform="translate(-289.72 -69.177)" fill="#fff"></path><path id="Path_130340" data-name="Path 130340" d="M23.094,82.582c.1.049.323.142.532.258,2.726,1.517,5.446,3.045,8.179,4.551.516.285.871.64.547,1.209-.31.545-.807.389-1.269.131q-4.155-2.323-8.315-4.638c-.4-.221-.751-.469-.6-1,.109-.39.393-.561.93-.51" transform="translate(-18.549 -69.216)" fill="#fff"></path><path id="Path_130341" data-name="Path 130341" d="M287.592,29.3c.047-.11.119-.312.216-.5q2.072-4.052,4.149-8.1c.251-.491.55-.939,1.174-.612s.423.827.172,1.315q-2.1,4.083-4.194,8.171c-.21.41-.457.756-.986.62-.393-.1-.555-.394-.529-.89" transform="translate(-241.066 -16.745)" fill="#fff"></path><path id="Path_130342" data-name="Path 130342" d="M113.3,29.488a.708.708,0,0,1-.465.686.681.681,0,0,1-.8-.193,2.063,2.063,0,0,1-.3-.478q-2.08-4.049-4.154-8.1a3.177,3.177,0,0,1-.17-.364.7.7,0,0,1,.338-.957.691.691,0,0,1,.977.275,10.968,10.968,0,0,1,.53.995q1.875,3.655,3.747,7.311a1.761,1.761,0,0,1,.3.825" transform="translate(-89.982 -16.747)" fill="#fff"></path><path id="Path_130343" data-name="Path 130343" d="M213.941,5.811c0-1.587.01-3.175-.006-4.762C213.93.5,214.059.027,214.667,0c.624-.027.778.449.777.994q0,4.8,0,9.605c0,.507-.142.953-.729.962-.628.009-.782-.434-.778-.989.011-1.587,0-3.175,0-4.762" transform="translate(-179.327 0)" fill="#fff"></path></g></g></g></svg>