<svg xmlns="http://www.w3.org/2000/svg" xmlns:xlink="http://www.w3.org/1999/xlink" width="78.135" height="49.139" viewBox="0 0 78.135 49.139"><defs><clipPath id="clip-path"><rect id="Rectangle_7223" data-name="Rectangle 7223" width="78.135" height="49.139" transform="translate(0 0)" fill="none" stroke="#fff" stroke-width="1"></rect></clipPath></defs><g id="Group_38043" data-name="Group 38043" transform="translate(0 0)"><g id="Group_38042" data-name="Group 38042" clip-path="url(#clip-path)"><path id="Path_70175" data-name="Path 70175" d="M23.883,1H3.633A2.633,2.633,0,0,0,1,3.633V16.684a2.633,2.633,0,0,0,2.634,2.633h6.609l8.649,4.711V19.317h4.992a2.633,2.633,0,0,0,2.633-2.633V3.633A2.633,2.633,0,0,0,23.883,1Z" fill="none" stroke="#fff" stroke-width="2"></path><path id="Path_70176" data-name="Path 70176" d="M53.469,2.328H74.413a2.723,2.723,0,0,1,2.723,2.723v13.5a2.723,2.723,0,0,1-2.723,2.723H67.577l-8.945,4.872V21.272H53.469a2.723,2.723,0,0,1-2.723-2.723V5.051A2.723,2.723,0,0,1,53.469,2.328Z" fill="none" stroke="#fff" stroke-width="2"></path><circle id="Ellipse_980" data-name="Ellipse 980" cx="8.387" cy="8.387" r="8.387" transform="translate(30.412 5.849)" fill="none" stroke="#fff" stroke-width="2"></circle><path id="Path_70177" data-name="Path 70177" d="M55.489,49.139V37.5A10.547,10.547,0,0,0,44.942,26.954H32.656A10.546,10.546,0,0,0,22.11,37.5V49.139" fill="none" stroke="#fff" stroke-width="2"></path><path id="Path_70178" data-name="Path 70178" d="M15.377,17.353l-5.969-4.9h2.985A3.352,3.352,0,0,0,15.745,9.1V4.992" fill="none" stroke="#fff" stroke-width="1.4"></path><line id="Line_762" data-name="Line 762" x2="11.56" transform="translate(7.978 4.992)" fill="none" stroke="#fff" stroke-width="1.4"></line><line id="Line_763" data-name="Line 763" x2="11.56" transform="translate(7.978 8.876)" fill="none" stroke="#fff" stroke-width="1.4"></line><line id="Line_764" data-name="Line 764" y1="9.163" transform="translate(30.413 39.976)" fill="none" stroke="#fff" stroke-width="2"></line><path id="Path_70179" data-name="Path 70179" d="M59.528,14.855l3.294-3.2,1.949,2.094L69.5,8.926" fill="none" stroke="#fff" stroke-width="2"></path></g></g></svg>