<svg xmlns="http://www.w3.org/2000/svg" width="64.551" height="51.556" viewBox="0 0 64.551 51.556"><g id="Group_38036" data-name="Group 38036" transform="translate(0.315 0.316)"><g id="Group_38041" data-name="Group 38041" transform="translate(0 0)"><path id="Path_70170" data-name="Path 70170" d="M39.647,25.012,59.4,37.156a4.326,4.326,0,0,1,1.584,5.91l-2.163,3.747a4.326,4.326,0,0,1-5.91,1.584L33.159,36.254" transform="translate(1.656 1.25)" fill="none" stroke="#0f0f0f" stroke-width="2"></path><path id="Path_70171" data-name="Path 70171" d="M31.638,3.465A20.625,20.625,0,1,1,3.466,11.019,20.625,20.625,0,0,1,31.638,3.465Z" transform="translate(0.035 0.035)" fill="none" stroke="#0f0f0f" stroke-width="2"></path><line id="Line_761" data-name="Line 761" y1="11.083" x2="6.763" transform="translate(39.407 29.796)" fill="none" stroke="#0f0f0f" stroke-width="2"></line><path id="Path_70172" data-name="Path 70172" d="M7,21.937h3.018l3.145,5.169L20.278,10.87l5.127,12.253,3.371-4.135,2.1,3.74h5.016" transform="translate(0.35 0.543)" fill="none" stroke="#0f0f0f" stroke-width="2"></path></g></g></svg>