<svg xmlns="http://www.w3.org/2000/svg" xmlns:xlink="http://www.w3.org/1999/xlink" id="Group_38020" data-name="Group 38020" width="49.537" height="59.004" viewBox="0 0 49.537 59.004"><defs><clipPath id="clip-path"><rect id="Rectangle_7211" data-name="Rectangle 7211" width="49.537" height="59.004" fill="none" stroke="#fff" stroke-width="2"></rect></clipPath></defs><g id="Group_38019" data-name="Group 38019" clip-path="url(#clip-path)"><path id="Path_70141" data-name="Path 70141" d="M29.986,15.177s16.684,4.741,17.369,21V47.015a29.548,29.548,0,0,0,1.28,9.013c.768,2.4.96,5.564-2.88,6.386H4.327c-3.2-.686-3.6-2.343-3.2-3.828a37.773,37.773,0,0,0,1.6-9.792V36.174c.686-16.257,17.369-21,17.369-21" transform="translate(-0.273 -4.139)" fill="none" stroke="#fff" stroke-width="2"></path><rect id="Rectangle_7210" data-name="Rectangle 7210" width="11.284" height="3.172" transform="translate(18.948 8.157)" fill="none" stroke="#fff" stroke-width="2"></rect><path id="Path_70142" data-name="Path 70142" d="M24.857,8.43l-3.55-4.8S19.825,1,24.219,1h6.295" transform="translate(-5.745 -0.273)" fill="none" stroke="#fff" stroke-width="2"></path><path id="Path_70143" data-name="Path 70143" d="M39.271,8.43l3.992-4.8S44.744,1,40.351,1H34.056" transform="translate(-9.287 -0.273)" fill="none" stroke="#fff" stroke-width="2"></path><path id="Path_70144" data-name="Path 70144" d="M33.793,57.438l-8.129-7.386h4.065a4.831,4.831,0,0,0,4.565-5.058v-6.2" transform="translate(-6.999 -10.578)" fill="none" stroke="#fff" stroke-width="2"></path><line id="Line_756" data-name="Line 756" x2="15.742" transform="translate(16.72 28.211)" fill="none" stroke="#fff" stroke-width="2"></line><line id="Line_757" data-name="Line 757" x2="3.352" transform="translate(29.11 34.071)" fill="none" stroke="#fff" stroke-width="2"></line><line id="Line_758" data-name="Line 758" x2="12.39" transform="translate(16.72 34.071)" fill="none" stroke="#fff" stroke-width="2"></line></g></svg>