<svg xmlns="http://www.w3.org/2000/svg" xmlns:xlink="http://www.w3.org/1999/xlink" width="52.151" height="61.243" viewBox="0 0 52.151 61.243"><defs><clipPath id="clip-path"><rect id="Rectangle_7222" data-name="Rectangle 7222" width="52.151" height="61.243" fill="none" stroke="#0f0f0f" stroke-width="2"></rect></clipPath></defs><g id="Group_38032" data-name="Group 38032" transform="translate(0 0)"><g id="Group_38031" data-name="Group 38031" transform="translate(0 0)" clip-path="url(#clip-path)"><path id="Path_70160" data-name="Path 70160" d="M37.889.7V8.248a5.59,5.59,0,0,0,5.771,5.388H51" transform="translate(0.444 0.009)" fill="none" stroke="#0f0f0f" stroke-width="2"></path><path id="Path_70161" data-name="Path 70161" d="M51.435,23.97v-10.7L38.324.7H7.55A6.634,6.634,0,0,0,.7,7.1V60.525H44.817a6.409,6.409,0,0,0,6.618-6.178V23.97" transform="translate(0.008 0.009)" fill="none" stroke="#0f0f0f" stroke-width="2"></path><rect id="Rectangle_7221" data-name="Rectangle 7221" width="17.434" height="11.431" transform="matrix(0.714, -0.7, 0.7, 0.714, 14.358, 25.264)" fill="none" stroke="#0f0f0f" stroke-width="2"></rect><path id="Path_70162" data-name="Path 70162" d="M35.536,20.221,21.348,34.147a3.238,3.238,0,0,1-4.58-.042L13.3,30.571a3.24,3.24,0,0,1,.044-4.581L27.528,12.064a3.239,3.239,0,0,1,4.581.042l3.469,3.534A3.239,3.239,0,0,1,35.536,20.221Z" transform="translate(0.145 0.131)" fill="none" stroke="#0f0f0f" stroke-width="2"></path><path id="Path_70163" data-name="Path 70163" d="M42.577,41.771h0a3.877,3.877,0,0,1-5.482-.051L25.556,29.966l5.534-5.432L42.628,36.289A3.877,3.877,0,0,1,42.577,41.771Z" transform="translate(0.299 0.288)" fill="none" stroke="#0f0f0f" stroke-width="2"></path><path id="Path_70164" data-name="Path 70164" d="M34.659,52.744H8.805V51.058a5.5,5.5,0,0,1,5.5-5.5h14.85a5.5,5.5,0,0,1,5.5,5.5Z" transform="translate(0.103 0.534)" fill="none" stroke="#0f0f0f" stroke-width="2"></path></g></g></svg>