<svg xmlns="http://www.w3.org/2000/svg" xmlns:xlink="http://www.w3.org/1999/xlink" id="Group_38024" data-name="Group 38024" width="57.461" height="58.287" viewBox="0 0 57.461 58.287"><defs><clipPath id="clip-path"><rect id="Rectangle_7213" data-name="Rectangle 7213" width="57.461" height="58.287" fill="none" stroke="#0f0f0f" stroke-width="1"></rect></clipPath></defs><g id="Group_38023" data-name="Group 38023" clip-path="url(#clip-path)"><path id="Path_70152" data-name="Path 70152" d="M38.564,9.705,46.2,2.048c.438.447.887.913,1.344,1.372.858.861,1.716,1.723,2.583,2.574a.674.674,0,0,1,.211.56,4.458,4.458,0,0,0,.871,3.1A4.145,4.145,0,0,0,54.5,11.1a2.215,2.215,0,0,1,1.4.5A36.766,36.766,0,0,1,63.3,18.936a15.08,15.08,0,0,1,2.378,4.522,16.522,16.522,0,0,1,.547,5.716,30.9,30.9,0,0,1-2.113,9.208c-.042.109-.094.214-.161.365-.1-.093-.188-.165-.267-.243-.837-.833-1.667-1.672-2.512-2.5a.763.763,0,0,1-.251-.62,20.959,20.959,0,0,0-.7-6.273,11,11,0,0,0-1.384-3.05,6.766,6.766,0,0,0-2.287-2.073,1.339,1.339,0,0,0-1.718.216q-3.03,3.029-6.062,6.055-4.806,4.784-9.613,9.567a1.031,1.031,0,0,0-.264.542c-.1.664-.148,1.337-.251,2a1.128,1.128,0,0,1-.275.576Q33.53,47.983,28.681,53q-2.63,2.727-5.257,5.457a.792.792,0,0,1-.643.278,7.3,7.3,0,0,1-5.545-2.488,6.073,6.073,0,0,1-1.4-4.781,2.335,2.335,0,0,1,.763-1.557q7.461-7.413,14.884-14.863a.677.677,0,0,1,.683-.22c.637.12,1.283.192,1.923.3a.546.546,0,0,0,.534-.17q6.7-6.766,13.418-13.523a.659.659,0,0,0,.156-.19,6.026,6.026,0,0,0,.5-4.127,4.39,4.39,0,0,0-2.324-2.633,10.456,10.456,0,0,0-3.857-1.094.685.685,0,0,1-.383-.126C40.933,12.074,39.741,10.88,38.564,9.705Z" transform="translate(-9.219 -1.194)" fill="none" stroke="#0f0f0f" stroke-width="2"></path><path id="Path_70153" data-name="Path 70153" d="M30.217,23.664,23.47,30.44c-.686-.7-1.374-1.409-2.069-2.11-.873-.88-1.758-1.747-2.622-2.635a.442.442,0,0,0-.577-.1,12.157,12.157,0,0,1-8.674.479A10.831,10.831,0,0,1,3.842,21.3a22.975,22.975,0,0,1-2.8-7.223A1.269,1.269,0,0,1,2.1,12.424a.549.549,0,0,1,.556.276,13.914,13.914,0,0,0,3.683,3.925,6.432,6.432,0,0,0,3.028,1.2,4.476,4.476,0,0,0,2.733-.54,10.691,10.691,0,0,0,5.523-7.65A2.864,2.864,0,0,0,17.2,7.549a15.342,15.342,0,0,0-2.828-3.292c-.517-.484-1.038-.967-1.6-1.4a.908.908,0,0,1-.322-1,.877.877,0,0,1,.733-.81,3.6,3.6,0,0,1,1.495.061,18.928,18.928,0,0,1,9.63,6.521,9.91,9.91,0,0,1,1.38,9.256c-.143.461-.312.916-.5,1.361a.375.375,0,0,0,.1.486q2.364,2.343,4.711,4.7C30.087,23.517,30.163,23.606,30.217,23.664Z" transform="translate(-0.583 -0.583)" fill="none" stroke="#0f0f0f" stroke-width="2"></path><path id="Path_70154" data-name="Path 70154" d="M104.024,98.15,96.4,105.782,80.921,89.336l6.84-6.85Zm-7.591-3.576c-1.017.738-2.03,1.468-3.032,2.213a.344.344,0,0,0-.052.3c.344,1.09.695,2.179,1.064,3.26a.42.42,0,0,0,.313.227q1.715.025,3.432,0a.391.391,0,0,0,.292-.208q.557-1.64,1.071-3.3a.358.358,0,0,0-.1-.315C98.439,96.027,97.445,95.31,96.432,94.575Z" transform="translate(-47.182 -48.094)" fill="none" stroke="#0f0f0f" stroke-width="2"></path></g></svg>