<svg xmlns="http://www.w3.org/2000/svg" xmlns:xlink="http://www.w3.org/1999/xlink" id="Group_38022" data-name="Group 38022" width="61.681" height="65.709" viewBox="0 0 61.681 65.709"><defs><clipPath id="clip-path"><rect id="Rectangle_7212" data-name="Rectangle 7212" width="61.681" height="65.709" fill="none" stroke="#0f0f0f" stroke-width="2"></rect></clipPath></defs><g id="Group_38021" data-name="Group 38021" transform="translate(0 0)" clip-path="url(#clip-path)"><path id="Path_70145" data-name="Path 70145" d="M48.985,14.784H45.447a13.771,13.771,0,0,0-1.082-2.608l2.5-2.5a.985.985,0,0,0,0-1.393L42.69,4.1a.985.985,0,0,0-1.393,0l-2.5,2.5a13.771,13.771,0,0,0-2.608-1.082V1.984A.985.985,0,0,0,35.2,1H29.295a.984.984,0,0,0-.984.984V5.523A13.723,13.723,0,0,0,25.7,6.605L23.2,4.1a.984.984,0,0,0-1.392,0L17.628,8.28a.985.985,0,0,0,0,1.393l2.5,2.5a13.716,13.716,0,0,0-1.083,2.608H15.512" transform="translate(-1.709 -0.11)" fill="none" stroke="#0f0f0f" stroke-width="2"></path><circle id="Ellipse_975" data-name="Ellipse 975" cx="6.869" cy="6.869" r="6.869" transform="translate(23.671 12.35)" fill="none" stroke="#0f0f0f" stroke-width="2"></circle><path id="Path_70146" data-name="Path 70146" d="M47.066,69.649V42.587a6.826,6.826,0,0,0-6.827-6.826H24.8a6.825,6.825,0,0,0-6.826,6.826V69.649" transform="translate(-1.98 -3.939)" fill="none" stroke="#0f0f0f" stroke-width="2"></path><path id="Path_70147" data-name="Path 70147" d="M60.872,29.09a4.951,4.951,0,1,1-4.951-4.951A4.951,4.951,0,0,1,60.872,29.09Z" transform="translate(-5.615 -2.659)" fill="none" stroke="#0f0f0f" stroke-width="2"></path><path id="Path_70148" data-name="Path 70148" d="M66.33,70.106V44.832a4.921,4.921,0,0,0-4.92-4.921H50.281" transform="translate(-5.539 -4.397)" fill="none" stroke="#0f0f0f" stroke-width="2"></path><path id="Path_70149" data-name="Path 70149" d="M7.219,29.09a4.951,4.951,0,1,0,4.951-4.951A4.951,4.951,0,0,0,7.219,29.09Z" transform="translate(-0.795 -2.659)" fill="none" stroke="#0f0f0f" stroke-width="2"></path><path id="Path_70150" data-name="Path 70150" d="M1,70.106V44.832a4.921,4.921,0,0,1,4.92-4.921H17.049" transform="translate(-0.11 -4.397)" fill="none" stroke="#0f0f0f" stroke-width="2"></path><path id="Path_70151" data-name="Path 70151" d="M29.907,51.693l3.253,3.253,4.6-4.6" transform="translate(-3.295 -5.546)" fill="none" stroke="#0f0f0f" stroke-width="2"></path><line id="Line_759" data-name="Line 759" y1="8.204" transform="translate(54.766 57.505)" fill="none" stroke="#0f0f0f" stroke-width="2"></line><line id="Line_760" data-name="Line 760" y1="8.204" transform="translate(8.006 57.505)" fill="none" stroke="#0f0f0f" stroke-width="2"></line></g></svg>