<svg xmlns="http://www.w3.org/2000/svg" width="46.013" height="63.757" viewBox="0 0 46.013 63.757"><g id="Group_38038" data-name="Group 38038" transform="translate(0.812 3.892)"><g id="Group_38039" data-name="Group 38039" transform="translate(0.208 -2.896)"><path id="Path_70173" data-name="Path 70173" d="M29.714,232.114H69.761c-.062.61-.121,1.194-.18,1.779q-.327,3.2-.655,6.4-.361,3.49-.729,6.98-.286,2.759-.565,5.519-.405,3.935-.812,7.869-.357,3.492-.706,6.984c-.138,1.363-.2,2.739-.441,4.084a5.125,5.125,0,0,1-2.361,3.43,5.258,5.258,0,0,1-2.908.884q-6.186.02-12.371.011c-2.993,0-5.986.02-8.978-.014a5.424,5.424,0,0,1-5.208-4.056,15.337,15.337,0,0,1-.281-2.306q-.338-3.219-.665-6.438c-.218-2.135-.43-4.27-.648-6.405q-.348-3.407-.7-6.813-.438-4.276-.874-8.552-.464-4.478-.938-8.956C29.721,232.4,29.722,232.272,29.714,232.114ZM47.962,253.07q0,7.265,0,14.529c0,.126,0,.252,0,.377a1.773,1.773,0,0,0,2.262,1.639,1.8,1.8,0,0,0,1.27-1.893q0-14.647,0-29.294a2.858,2.858,0,0,0-.051-.544,1.746,1.746,0,0,0-2.479-1.211,1.854,1.854,0,0,0-1.007,1.837Q47.968,245.79,47.962,253.07Zm7.972,14.181H55.9c0,.228,0,.456,0,.684a1.751,1.751,0,0,0,3.5.069c.007-.171.018-.342.03-.513q.223-3.277.446-6.555c.105-1.583.2-3.167.3-4.751.171-2.574.35-5.148.523-7.722q.225-3.348.444-6.7c.077-1.151.169-2.3.231-3.451a1.751,1.751,0,0,0-3.485-.309c-.125,1.627-.234,3.256-.342,4.885-.17,2.563-.331,5.126-.5,7.689q-.294,4.441-.6,8.882Q56.194,263.356,55.934,267.251Zm-12.372.473c0-.041-.008-.144-.015-.246q-.295-4.337-.589-8.675-.325-4.869-.641-9.738-.364-5.467-.733-10.933a1.752,1.752,0,0,0-2.117-1.6,1.79,1.79,0,0,0-1.367,2.1q.4,5.825.793,11.65.349,5.191.686,10.382c.122,1.868.239,3.737.36,5.6.04.615.082,1.23.132,1.844a1.752,1.752,0,0,0,1.877,1.562A1.773,1.773,0,0,0,43.562,267.723Z" transform="translate(-27.814 -214.302)" fill="none" stroke="#0f0f0f" stroke-width="2"></path><path id="Path_70174" data-name="Path 70174" d="M12.868,8.9c0-1.238-.018-2.425.008-3.611a7.651,7.651,0,0,1,.18-1.661,3.164,3.164,0,0,1,2.9-2.548A17.888,17.888,0,0,1,18.007,1Q23.66,1,29.314,1.011a7.091,7.091,0,0,1,1.425.158,2.691,2.691,0,0,1,2.245,2.515,22.349,22.349,0,0,1,.11,2.358c.017.935,0,1.87,0,2.859h.421c2.673,0,5.347-.012,8.02.007a3.288,3.288,0,0,1,3.087,1.806,3.112,3.112,0,0,1-1.956,4.406,4.093,4.093,0,0,1-1.111.16q-13.607.014-27.213.01c-3.311,0-6.623.007-9.934,0A3.261,3.261,0,0,1,1.4,13.593a3.1,3.1,0,0,1,1.882-4.5,4.351,4.351,0,0,1,1.211-.185c2.65-.016,5.3-.009,7.952-.009Zm4.426-.012H28.666V5.405H17.294Z" transform="translate(-1 -1)" fill="none" stroke="#0f0f0f" stroke-width="2"></path></g></g></svg>