<svg xmlns="http://www.w3.org/2000/svg" width="73.488" height="53.893" viewBox="0 0 73.488 53.893"><g id="Group_38017" data-name="Group 38017" transform="translate(0.3 0.3)"><g id="Group_38018" data-name="Group 38018" transform="translate(0.7 0.7)"><path id="Path_70138" data-name="Path 70138" d="M52.436,26.167l10.7-11.056s3.155-2.23,5.93,0a4.609,4.609,0,0,1,1.006,5.679C68.718,23.6,56.1,37.423,56.1,37.423a13.893,13.893,0,0,1-9.9,3.77c-6.382-.05-18.544,0-18.544,0a9.193,9.193,0,0,0-6.276,3.777L7.363,31.446l.2-.554s6.936-13.268,23.494-8.041l17.111.05a4.873,4.873,0,0,1,4.271,4.925A4.4,4.4,0,0,1,48.616,32.3H31.706" transform="translate(0.843 2.408)" fill="none" stroke="#fff" stroke-width="2"></path><path id="Path_70139" data-name="Path 70139" d="M24.522,43.514h0a9.733,9.733,0,0,1-13.764.248L.7,34.059l6.758-7.006Z" transform="translate(-0.7 5.402)" fill="none" stroke="#fff" stroke-linejoin="round" stroke-width="2"></path><line id="Line_754" data-name="Line 754" x1="2.251" y1="2.251" transform="translate(14.204 45.77)" fill="#fff" stroke="#fff" stroke-width="2"></line><line id="Line_755" data-name="Line 755" x1="2.251" y1="2.251" transform="translate(14.204 45.77)" fill="none" stroke="#fff" stroke-linejoin="round" stroke-width="2"></line><rect id="Rectangle_7209" data-name="Rectangle 7209" width="27.151" height="24.05" rx="2.048" transform="translate(27.28)" fill="none" stroke="#fff" stroke-linejoin="round" stroke-width="2"></rect><path id="Path_70140" data-name="Path 70140" d="M41.517,5.24h0a6.433,6.433,0,1,1-12.866,0" transform="translate(5.772 0.351)" fill="none" stroke="#fff" stroke-linejoin="round" stroke-width="2"></path></g></g></svg>