<svg xmlns="http://www.w3.org/2000/svg" width="51.589" height="72.374" viewBox="0 0 51.589 72.374"><g id="Group_38034" data-name="Group 38034" transform="translate(0.439 0.439)"><g id="Group_38040" data-name="Group 38040" transform="translate(0 0)"><path id="Path_70165" data-name="Path 70165" d="M2.976,37.638A22.43,22.43,0,0,1,16.507,7.167" transform="translate(-0.204 -1.422)" fill="none" stroke="#fff" stroke-width="2"></path><path id="Path_70166" data-name="Path 70166" d="M38.992,7.652a22.4,22.4,0,0,1,8.88,35.639" transform="translate(-7.733 -1.518)" fill="none" stroke="#fff" stroke-width="2"></path><path id="Path_70167" data-name="Path 70167" d="M20.852,45.676a16.5,16.5,0,1,1,14.17-2.969" transform="translate(-1.666 -2.614)" fill="none" stroke="#fff" stroke-width="2"></path><path id="Path_70168" data-name="Path 70168" d="M23.458,38.912a8.026,8.026,0,1,1,6.994.039" transform="translate(-3.762 -4.696)" fill="none" stroke="#fff" stroke-width="2"></path><circle id="Ellipse_978" data-name="Ellipse 978" cx="4.001" cy="4.001" r="4.001" transform="translate(23.759 0.561)" fill="none" stroke="#fff" stroke-width="2"></circle><circle id="Ellipse_979" data-name="Ellipse 979" cx="4.001" cy="4.001" r="4.001" transform="translate(0.561 35.56)" fill="none" stroke="#fff" stroke-width="2"></circle><path id="Path_70169" data-name="Path 70169" d="M50.864,73.745V52.638a3.812,3.812,0,0,0-4.185-3.793A3.922,3.922,0,0,0,43.244,52.8v4.234l-.316.015V50.387a3.922,3.922,0,0,0-3.436-3.956,3.812,3.812,0,0,0-4.185,3.793A3.8,3.8,0,0,0,27.7,50.08v-15.5a3.92,3.92,0,0,0-3.436-3.955,3.81,3.81,0,0,0-4.185,3.792V61.394l-8.6-5.684A5.081,5.081,0,0,0,4.619,63L15.446,77.4" transform="translate(-0.714 -6.07)" fill="none" stroke="#fff" stroke-width="2"></path></g></g></svg>