<svg xmlns="http://www.w3.org/2000/svg" width="120" height="120" viewBox="0 0 120 120"><g id="Group_38094" data-name="Group 38094" transform="translate(-621 -4194)"><g id="Ellipse_989" data-name="Ellipse 989" transform="translate(621 4194)" fill="none" stroke="#fff" stroke-width="2"><circle cx="60" cy="60" r="60" stroke="none"></circle><circle cx="60" cy="60" r="59" fill="none"></circle></g><g id="Group_38078" data-name="Group 38078" transform="translate(649.695 4217.938)"><g id="Group_38079" data-name="Group 38079" transform="translate(1.304 1.551)"><circle id="Ellipse_990" data-name="Ellipse 990" cx="18.13" cy="18.13" r="18.13" transform="translate(9.641 25.096)" fill="none" stroke="#fff" stroke-width="2"></circle><path id="Path_70196" data-name="Path 70196" d="M29.31,13.365a5.8,5.8,0,1,1-3.8-7.277A5.8,5.8,0,0,1,29.31,13.365Z" transform="translate(11.369 2.184)" fill="none" stroke="#fff" stroke-width="2"></path><path id="Path_70197" data-name="Path 70197" d="M29.758,31.132a5.8,5.8,0,1,1-5.8-5.8A5.8,5.8,0,0,1,29.758,31.132Z" transform="translate(11.502 16.407)" fill="none" stroke="#fff" stroke-width="2"></path><path id="Path_70198" data-name="Path 70198" d="M20.982,25.281a5.8,5.8,0,1,1-5.8-5.8A5.8,5.8,0,0,1,20.982,25.281Z" transform="translate(5.105 12.142)" fill="none" stroke="#fff" stroke-width="2"></path><path id="Path_70199" data-name="Path 70199" d="M4.433,61.278,37.022,71.53a4.9,4.9,0,0,0,6.148-3.206l13.056-41.5a6.892,6.892,0,0,0-1.086-6.24L40.407,1.19,18.566,9.067a6.894,6.894,0,0,0-4.238,4.418L1.228,55.128A4.9,4.9,0,0,0,4.433,61.278Z" transform="translate(-1.001 -1.19)" fill="none" stroke="#fff" stroke-width="2"></path><line id="Line_767" data-name="Line 767" y1="10.715" x2="18.813" transform="translate(35.144 3.094)" fill="none" stroke="#fff" stroke-width="2"></line><line id="Line_768" data-name="Line 768" x1="13.995" y2="21.969" transform="translate(20.283 32.347)" fill="none" stroke="#fff" stroke-width="2"></line></g></g></g></svg>