<svg xmlns="http://www.w3.org/2000/svg" xmlns:xlink="http://www.w3.org/1999/xlink" width="120" height="120" viewBox="0 0 120 120"><defs><clipPath id="clip-path"><rect id="Rectangle_7247" data-name="Rectangle 7247" width="77.465" height="61.991" fill="none" stroke="#fff" stroke-width="2"></rect></clipPath></defs><g id="Group_38097" data-name="Group 38097" transform="translate(-1454 -4194)"><g id="Ellipse_996" data-name="Ellipse 996" transform="translate(1454 4194)" fill="none" stroke="#fff" stroke-width="2" opacity="0.86"><circle cx="60" cy="60" r="60" stroke="none"></circle><circle cx="60" cy="60" r="59" fill="none"></circle></g><g id="Group_38083" data-name="Group 38083" transform="translate(1475 4223)"><g id="Group_38082" data-name="Group 38082" transform="translate(0 0)" clip-path="url(#clip-path)"><path id="Path_70205" data-name="Path 70205" d="M15.441,37.614a23.461,23.461,0,0,0,1.83,4.495l-4.333,4.275a1.692,1.692,0,0,0-.015,2.393l7.134,7.23a1.742,1.742,0,0,0,2.393.016l4.332-4.277a23.536,23.536,0,0,0,4.471,1.892l-.041,6.082a1.692,1.692,0,0,0,1.681,1.7l10.154.068a1.693,1.693,0,0,0,1.7-1.681l.04-6.082a23.6,23.6,0,0,0,4.5-1.83l4.275,4.332a1.69,1.69,0,0,0,2.392.016l7.229-7.135a1.693,1.693,0,0,0,.016-2.393l-4.275-4.332a23.615,23.615,0,0,0,1.891-4.47m.09-13.539a23.59,23.59,0,0,0-1.83-4.495l4.332-4.275a1.693,1.693,0,0,0,.016-2.393L56.289,5.986A1.692,1.692,0,0,0,53.9,5.97l-4.333,4.275a23.463,23.463,0,0,0-4.47-1.892l.04-6.082a1.691,1.691,0,0,0-1.681-1.7L33.3.5a1.693,1.693,0,0,0-1.7,1.681l-.041,6.082a23.533,23.533,0,0,0-4.495,1.832L22.784,5.763a1.693,1.693,0,0,0-2.393-.016l-7.23,7.133a1.693,1.693,0,0,0-.016,2.393L17.422,19.6a23.486,23.486,0,0,0-1.891,4.47" transform="translate(0 0)" fill="none" stroke="#fff" stroke-width="2"></path><path id="Path_70206" data-name="Path 70206" d="M15.441,37.614a23.461,23.461,0,0,0,1.83,4.495l-4.333,4.275a1.692,1.692,0,0,0-.015,2.393l7.134,7.23a1.742,1.742,0,0,0,2.393.016l4.332-4.277a23.536,23.536,0,0,0,4.471,1.892l-.041,6.082a1.692,1.692,0,0,0,1.681,1.7l10.154.068a1.693,1.693,0,0,0,1.7-1.681l.04-6.082a23.6,23.6,0,0,0,4.5-1.83l4.275,4.332a1.69,1.69,0,0,0,2.392.016l7.229-7.135a1.693,1.693,0,0,0,.016-2.393l-4.275-4.332a23.615,23.615,0,0,0,1.891-4.47m.09-13.539a23.59,23.59,0,0,0-1.83-4.495l4.332-4.275a1.693,1.693,0,0,0,.016-2.393L56.289,5.986A1.692,1.692,0,0,0,53.9,5.97l-4.333,4.275a23.463,23.463,0,0,0-4.47-1.892l.04-6.082a1.691,1.691,0,0,0-1.681-1.7L33.3.5a1.693,1.693,0,0,0-1.7,1.681l-.041,6.082a23.533,23.533,0,0,0-4.495,1.832L22.784,5.763a1.693,1.693,0,0,0-2.393-.016l-7.23,7.133a1.693,1.693,0,0,0-.016,2.393L17.422,19.6a23.486,23.486,0,0,0-1.891,4.47" transform="translate(0 0)" fill="none" stroke="#fff" stroke-width="2"></path><path id="Path_70207" data-name="Path 70207" d="M56.532,33.239a18.5,18.5,0,1,1-16.116-20.6,18.5,18.5,0,0,1,16.116,20.6" transform="translate(0 0)" fill="none" stroke="#fff" stroke-width="2"></path><path id="Path_70208" data-name="Path 70208" d="M56.532,33.239a18.5,18.5,0,1,1-16.116-20.6A18.5,18.5,0,0,1,56.532,33.239Z" transform="translate(0 0)" fill="none" stroke="#fff" stroke-width="2"></path><path id="Path_70209" data-name="Path 70209" d="M40.689,41.268l-9.36-7.677h4.68a5.257,5.257,0,0,0,5.257-5.258V21.884" transform="translate(0 0)" fill="none" stroke="#fff" stroke-width="2"></path><line id="Line_771" data-name="Line 771" x2="18.127" transform="translate(29.088 21.884)" fill="none" stroke="#fff" stroke-width="2"></line><line id="Line_772" data-name="Line 772" x2="18.127" transform="translate(29.088 27.975)" fill="none" stroke="#fff" stroke-width="2"></line><path id="Path_70210" data-name="Path 70210" d="M71.2,32.091V20.06H65.119V32.091H60.562l7.595,7.451,7.595-7.451Z" transform="translate(0 0)" fill="none" stroke="#fff" stroke-width="2"></path><path id="Path_70211" data-name="Path 70211" d="M12.346,30.264V18.233H6.27V30.264H1.713l7.595,7.451L16.9,30.264Z" transform="translate(0 0)" fill="none" stroke="#fff" stroke-width="2"></path></g></g></g></svg>