<svg xmlns="http://www.w3.org/2000/svg" width="120" height="120" viewBox="0 0 120 120"><g id="Group_38095" data-name="Group 38095" transform="translate(-900 -4194)"><g id="Ellipse_991" data-name="Ellipse 991" transform="translate(900 4194)" fill="none" stroke="#fff" stroke-width="2"><circle cx="60" cy="60" r="60" stroke="none"></circle><circle cx="60" cy="60" r="59" fill="none"></circle></g><g id="Group_38081" data-name="Group 38081" transform="translate(925 4219)"><g id="Group_38092" data-name="Group 38092" transform="translate(0.773 7.445)"><circle id="Ellipse_992" data-name="Ellipse 992" cx="8.312" cy="8.312" r="8.312" transform="translate(25.663 6.792)" fill="none" stroke="#fff" stroke-width="2"></circle><path id="Path_70201" data-name="Path 70201" d="M54.369,70.131V47.686c0-3.127-3.5-5.662-7.822-5.662H28.853c-4.32,0-7.822,2.535-7.822,5.662V70.131" transform="translate(-3.726 -14.038)" fill="none" stroke="#fff" stroke-width="2"></path><circle id="Ellipse_993" data-name="Ellipse 993" cx="5.673" cy="5.673" r="5.673" transform="translate(50.952 16.136)" fill="none" stroke="#fff" stroke-width="2"></circle><path id="Path_70202" data-name="Path 70202" d="M77.551,70.8V50.813c0-2.149-2.524-3.891-5.638-3.891H59.16" transform="translate(-8.913 -14.703)" fill="none" stroke="#fff" stroke-width="2"></path><circle id="Ellipse_994" data-name="Ellipse 994" cx="5.673" cy="5.673" r="5.673" transform="translate(6.341 16.136)" fill="none" stroke="#fff" stroke-width="2"></circle><circle id="Ellipse_997" data-name="Ellipse 997" cx="5.673" cy="5.673" r="5.673" transform="translate(11.632)" fill="none" stroke="#fff" stroke-width="2"></circle><circle id="Ellipse_998" data-name="Ellipse 998" cx="5.673" cy="5.673" r="5.673" transform="translate(46.282 0.001)" fill="none" stroke="#fff" stroke-width="2"></circle><path id="Path_70203" data-name="Path 70203" d="M1,70.8V50.813c0-2.149,2.525-3.891,5.638-3.891H19.391" transform="translate(-1 -14.703)" fill="none" stroke="#fff" stroke-width="2"></path><path id="Path_70204" data-name="Path 70204" d="M35.116,60.782l3.727,3.727,5.273-5.273" transform="translate(-5.641 -16.38)" fill="none" stroke="#fff" stroke-width="2"></path><line id="Line_769" data-name="Line 769" y1="9.401" transform="translate(61.735 46.239)" fill="none" stroke="#fff" stroke-width="2"></line><line id="Line_770" data-name="Line 770" y1="9.401" transform="translate(8.154 46.239)" fill="none" stroke="#fff" stroke-width="2"></line></g></g></g></svg>