<svg xmlns="http://www.w3.org/2000/svg" width="120" height="120" viewBox="0 0 120 120"><g id="Group_38096" data-name="Group 38096" transform="translate(-1173 -4194)"><g id="Ellipse_995" data-name="Ellipse 995" transform="translate(1173 4194)" fill="none" stroke="#fff" stroke-width="2" opacity="0.86"><circle cx="60" cy="60" r="60" stroke="none"></circle><circle cx="60" cy="60" r="59" fill="none"></circle></g><g id="noun-staff-985442" transform="translate(1124.512 4186.539)"><path id="Path_69975" data-name="Path 69975" d="M231.146,253.33a11.888,11.888,0,0,0,12.277,0" transform="translate(-127.675 -193.259)" fill="none" stroke="#fff" stroke-width="2"></path><path id="Path_69976" data-name="Path 69976" d="M159.257,52.951s-4.612,1.8,1.38,7.764c0,0,2.806,6.669,11.6,6.669s11.047-6.669,11.047-6.669c5.857-4.24,2.185-7.291,2.185-7.291a18.974,18.974,0,0,0,1.7-13.342,4.43,4.43,0,0,0-2.736-2.782,20.256,20.256,0,0,1-6.534-2.808c-2.43-1.727-6.385-3.146-12.218-1.384,0,0-14.657,5.271-6.425,19.843Z" transform="translate(-62.624)" fill="none" stroke="#fff" stroke-width="2"></path><path id="Path_69977" data-name="Path 69977" d="M196.4,350.725,182.37,364.754l-14.029-14.029" transform="translate(-72.761 -278.417)" fill="none" stroke="#fff" stroke-width="2"></path><path id="Path_69978" data-name="Path 69978" d="M164.238,139.492l5.706,1.647a7.254,7.254,0,0,1,2.073-6.026s2.2,5.582,12.643,6.738c0,0,0-4.282,3.126-5.652,0,0,.469,5.98,4.8,5.98" transform="translate(-69.173 -89.895)" fill="none" stroke="#fff" stroke-width="2"></path><path id="Path_69979" data-name="Path 69979" d="M96.92,463.067H109.1" transform="translate(-10.314 -376.644)" fill="none" stroke="#fff" stroke-width="2"></path><path id="Path_69980" data-name="Path 69980" d="M58.016,303.343a5.583,5.583,0,0,1-5.2,5.294c-.082.006-.152.012-.207.019a23.006,23.006,0,0,0-20.3,22.845H94.555a23.007,23.007,0,0,0-20.3-22.845c-.055-.006-.125-.013-.207-.019a5.582,5.582,0,0,1-5.2-5.328" transform="translate(46.175 -236.958)" fill="none" stroke="#fff" stroke-width="2"></path></g></g></svg>