<svg xmlns="http://www.w3.org/2000/svg" id="Component_44_1" data-name="Component 44 – 1" width="120" height="120" viewBox="0 0 120 120"><g id="Ellipse_954" data-name="Ellipse 954" fill="none" stroke="#fff" stroke-width="2"><circle cx="60" cy="60" r="60" stroke="none"></circle><circle cx="60" cy="60" r="59" fill="none"></circle></g><g id="Group_38075" data-name="Group 38075" transform="translate(22.301 23.301)"><g id="Group_38076" data-name="Group 38076" transform="translate(0.7 0.699)"><path id="Path_70193" data-name="Path 70193" d="M54.347,40.6,65.311,29.274s3.231-2.285,6.074,0a4.719,4.719,0,0,1,1.029,5.816C71.024,37.972,58.1,52.127,58.1,52.127a14.232,14.232,0,0,1-10.14,3.86c-6.537-.052-18.992,0-18.992,0a9.409,9.409,0,0,0-6.428,3.868L8.182,46l.2-.567S15.487,31.847,32.446,37.2l17.525.052A4.991,4.991,0,0,1,54.347,42.3a4.508,4.508,0,0,1-3.911,4.581H33.115" transform="translate(0.223 2.7)" fill="none" stroke="#fff" stroke-width="2"></path><rect id="Rectangle_7245" data-name="Rectangle 7245" width="9.97" height="24.284" transform="translate(0 54.447) rotate(-46.032)" fill="none" stroke="#fff" stroke-linejoin="round" stroke-width="2"></rect><path id="Path_70194" data-name="Path 70194" d="M45.844,3.006a17.208,17.208,0,1,1-23.5,6.3A17.209,17.209,0,0,1,45.844,3.006Z" transform="translate(1.684 -0.699)" fill="none" stroke="#fff" stroke-width="2"></path><path id="Path_70195" data-name="Path 70195" d="M38.222,27.78l-8.166-6.7h4.083A4.587,4.587,0,0,0,38.725,16.5V10.87" transform="translate(2.921 0.555)" fill="none" stroke="#fff" stroke-width="2"></path><line id="Line_765" data-name="Line 765" x2="15.813" transform="translate(31.022 11.426)" fill="none" stroke="#fff" stroke-width="2"></line><line id="Line_766" data-name="Line 766" x2="15.813" transform="translate(31.022 16.739)" fill="none" stroke="#fff" stroke-width="2"></line></g></g></svg>